<svg width="290" height="75" viewBox="0 0 290 75" fill="none" xmlns="http://www.w3.org/2000/svg">
<path fill-rule="evenodd" clip-rule="evenodd" d="M11.2765 54.25H28.8177C34.9483 54.25 39.9366 49.3578 40.0909 43.2644L40.0942 42.9735V22.2998C40.0942 16.0719 35.0455 11.0233 28.8177 11.0233H11.2765C5.04868 11.0233 2.15226e-05 16.0719 0 22.2998V26.7186C0 27.5836 0.701245 28.2849 1.56628 28.2849C2.43131 28.2849 3.13255 27.5836 3.13255 26.7186V22.2998C3.13257 17.8019 6.77865 14.1558 11.2765 14.1558H28.8177C33.3156 14.1558 36.9621 17.8019 36.9621 22.2998V42.9735C36.9621 47.4714 33.3156 51.1175 28.8177 51.1175H11.2765C6.77863 51.1174 3.13255 47.4714 3.13255 42.9735V38.0711C3.13255 37.2061 2.43131 36.5049 1.56628 36.5049C0.701245 36.5049 0 37.2061 0 38.0711V42.9735C0 49.2013 5.04867 54.25 11.2765 54.25Z" fill="black"/>
<path d="M30.177 26.6897C30.177 23.8049 27.8385 21.4664 24.9537 21.4664H15.7243C12.8395 21.4664 10.5009 23.8049 10.5009 26.6897V38.155C10.5009 41.0398 12.8395 43.3784 15.7243 43.3784H24.9537C27.8385 43.3784 30.177 41.0398 30.177 38.155V26.6897Z" fill="black"/>
<path d="M68.0101 50.7478C66.2442 50.7478 64.6481 50.3913 63.2218 49.6781C61.7954 48.9649 60.6238 47.8952 59.7069 46.4689H59.3503L58.8919 50.1366H54.562V13.3071H59.8597V26.6024H60.1654C60.7427 25.7195 61.4219 24.9893 62.203 24.412C63.018 23.8347 63.9349 23.4102 64.9537 23.1385C65.9725 22.8668 67.0762 22.731 68.2648 22.731C70.3024 22.731 72.1023 23.2234 73.6644 24.2082C75.2266 25.1931 76.4321 26.7043 77.2811 28.7419C78.1641 30.7795 78.6056 33.4114 78.6056 36.6375C78.6056 39.9316 78.1811 42.6145 77.3321 44.686C76.4831 46.7576 75.2605 48.2857 73.6644 49.2706C72.1023 50.2554 70.2175 50.7478 68.0101 50.7478ZM66.5328 46.1633C68.061 46.1633 69.3006 45.8576 70.2514 45.2463C71.2363 44.6351 71.9664 43.6842 72.4418 42.3937C72.9173 41.0693 73.155 39.3543 73.155 37.2488V36.3319C73.155 34.2264 72.9173 32.5114 72.4418 31.187C72.0004 29.8626 71.2872 28.8947 70.3024 28.2834C69.3175 27.6382 68.0271 27.3156 66.431 27.3156C65.4461 27.3156 64.5462 27.4854 63.7312 27.825C62.9161 28.1646 62.2199 28.7079 61.6426 29.455C61.0653 30.1682 60.6238 31.1021 60.3182 32.2567C60.0126 33.4114 59.8597 34.8037 59.8597 36.4338V37.1469C59.8597 39.0826 60.0805 40.7297 60.522 42.0881C60.9974 43.4125 61.7275 44.4313 62.7124 45.1445C63.6972 45.8237 64.9707 46.1633 66.5328 46.1633ZM93.9436 50.7478C91.1589 50.7478 88.7987 50.2554 86.863 49.2706C84.9612 48.2518 83.5179 46.7066 82.5331 44.6351C81.5822 42.5635 81.1068 39.9316 81.1068 36.7394C81.1068 33.5132 81.5822 30.8813 82.5331 28.8438C83.5179 26.7722 84.9612 25.244 86.863 24.2592C88.7987 23.2404 91.1589 22.731 93.9436 22.731C96.7962 22.731 99.1734 23.2404 101.075 24.2592C102.977 25.244 104.403 26.7722 105.354 28.8438C106.339 30.8813 106.831 33.5132 106.831 36.7394C106.831 39.9316 106.339 42.5635 105.354 44.6351C104.403 46.7066 102.977 48.2518 101.075 49.2706C99.1734 50.2554 96.7962 50.7478 93.9436 50.7478ZM93.9436 46.367C95.6416 46.367 97.0339 46.0444 98.1206 45.3992C99.2074 44.72 100.005 43.7012 100.515 42.3428C101.058 40.9844 101.33 39.2694 101.33 37.1979V36.281C101.33 34.2094 101.058 32.4944 100.515 31.136C100.005 29.7777 99.2074 28.7758 98.1206 28.1306C97.0339 27.4514 95.6416 27.1118 93.9436 27.1118C92.2796 27.1118 90.9042 27.4514 89.8175 28.1306C88.7308 28.7758 87.9157 29.7777 87.3724 31.136C86.863 32.4944 86.6083 34.2094 86.6083 36.281V37.1979C86.6083 39.2694 86.863 40.9844 87.3724 42.3428C87.9157 43.7012 88.7308 44.72 89.8175 45.3992C90.9042 46.0444 92.2796 46.367 93.9436 46.367ZM110.703 50.1366V23.3423H115.084L115.542 27.6721H115.848C116.154 26.8231 116.544 26.0251 117.02 25.278C117.529 24.5309 118.174 23.9196 118.955 23.4441C119.77 22.9687 120.755 22.731 121.91 22.731C122.453 22.731 122.929 22.7819 123.336 22.8838C123.778 22.9857 124.117 23.0706 124.355 23.1385V28.1306H122.572C121.485 28.1306 120.518 28.3004 119.669 28.64C118.854 28.9796 118.157 29.489 117.58 30.1682C117.037 30.8134 116.629 31.6115 116.357 32.5624C116.12 33.5132 116.001 34.583 116.001 35.7716V50.1366H110.703ZM135.508 50.7478C133.334 50.7478 131.449 50.2554 129.853 49.2706C128.257 48.2857 127.018 46.7576 126.135 44.686C125.286 42.6145 124.861 39.9316 124.861 36.6375C124.861 33.4114 125.303 30.7795 126.186 28.7419C127.069 26.7043 128.291 25.1931 129.853 24.2082C131.415 23.2234 133.215 22.731 135.253 22.731C136.442 22.731 137.545 22.8668 138.564 23.1385C139.583 23.4102 140.483 23.8347 141.264 24.412C142.079 24.9893 142.758 25.7195 143.301 26.6024H143.658V13.3071H148.956V50.1366H144.626L144.116 46.4689H143.76C142.877 47.8952 141.705 48.9649 140.245 49.6781C138.819 50.3913 137.24 50.7478 135.508 50.7478ZM136.985 46.1633C138.547 46.1633 139.804 45.8237 140.754 45.1445C141.739 44.4313 142.469 43.4125 142.945 42.0881C143.42 40.7297 143.658 39.0826 143.658 37.1469V36.4338C143.658 34.8037 143.505 33.4114 143.2 32.2567C142.894 31.1021 142.452 30.1682 141.875 29.455C141.298 28.7079 140.602 28.1646 139.787 27.825C138.972 27.4854 138.055 27.3156 137.036 27.3156C135.474 27.3156 134.2 27.6382 133.215 28.2834C132.23 28.8947 131.5 29.8626 131.025 31.187C130.583 32.5114 130.363 34.2264 130.363 36.3319V37.2488C130.363 39.3543 130.6 41.0693 131.076 42.3937C131.551 43.6842 132.264 44.6351 133.215 45.2463C134.2 45.8576 135.457 46.1633 136.985 46.1633ZM165.363 50.7478C162.613 50.7478 160.303 50.2554 158.436 49.2706C156.602 48.2518 155.209 46.7066 154.259 44.6351C153.308 42.5635 152.832 39.9316 152.832 36.7394C152.832 33.5132 153.308 30.8813 154.259 28.8438C155.209 26.7722 156.619 25.244 158.487 24.2592C160.354 23.2404 162.681 22.731 165.465 22.731C168.012 22.731 170.135 23.2234 171.833 24.2082C173.565 25.1591 174.872 26.6194 175.755 28.5891C176.638 30.5587 177.08 33.0378 177.08 36.0263V38.0638H158.283C158.351 39.9656 158.639 41.5617 159.149 42.8522C159.658 44.1087 160.422 45.0426 161.441 45.6539C162.494 46.2312 163.818 46.5198 165.414 46.5198C166.399 46.5198 167.282 46.401 168.063 46.1633C168.844 45.8916 169.507 45.518 170.05 45.0426C170.593 44.5332 171.018 43.9389 171.323 43.2597C171.629 42.5465 171.782 41.7485 171.782 40.8655H176.978C176.978 42.4616 176.706 43.871 176.163 45.0935C175.619 46.3161 174.821 47.3519 173.769 48.2008C172.75 49.0159 171.527 49.6441 170.101 50.0856C168.675 50.5271 167.095 50.7478 165.363 50.7478ZM158.385 34.1924H171.527C171.527 32.868 171.374 31.7643 171.069 30.8813C170.797 29.9644 170.39 29.2173 169.846 28.64C169.303 28.0627 168.658 27.6552 167.91 27.4174C167.163 27.1458 166.314 27.0099 165.363 27.0099C163.937 27.0099 162.715 27.2646 161.696 27.774C160.711 28.2834 159.947 29.0815 159.404 30.1682C158.86 31.2209 158.521 32.5624 158.385 34.1924ZM180.936 50.1366V23.3423H185.317L185.776 27.6721H186.081C186.387 26.8231 186.777 26.0251 187.253 25.278C187.762 24.5309 188.407 23.9196 189.189 23.4441C190.004 22.9687 190.988 22.731 192.143 22.731C192.686 22.731 193.162 22.7819 193.569 22.8838C194.011 22.9857 194.35 23.0706 194.588 23.1385V28.1306H192.805C191.719 28.1306 190.751 28.3004 189.902 28.64C189.087 28.9796 188.39 29.489 187.813 30.1682C187.27 30.8134 186.862 31.6115 186.591 32.5624C186.353 33.5132 186.234 34.583 186.234 35.7716V50.1366H180.936ZM197.018 50.1366V13.3071H202.316V50.1366H197.018ZM218.733 50.7478C215.982 50.7478 213.673 50.2554 211.805 49.2706C209.971 48.2518 208.579 46.7066 207.628 44.6351C206.677 42.5635 206.202 39.9316 206.202 36.7394C206.202 33.5132 206.677 30.8813 207.628 28.8438C208.579 26.7722 209.988 25.244 211.856 24.2592C213.724 23.2404 216.05 22.731 218.835 22.731C221.382 22.731 223.504 23.2234 225.202 24.2082C226.934 25.1591 228.242 26.6194 229.124 28.5891C230.007 30.5587 230.449 33.0378 230.449 36.0263V38.0638H211.652C211.72 39.9656 212.009 41.5617 212.518 42.8522C213.028 44.1087 213.792 45.0426 214.81 45.6539C215.863 46.2312 217.188 46.5198 218.784 46.5198C219.769 46.5198 220.651 46.401 221.433 46.1633C222.214 45.8916 222.876 45.518 223.419 45.0426C223.963 44.5332 224.387 43.9389 224.693 43.2597C224.998 42.5465 225.151 41.7485 225.151 40.8655H230.347C230.347 42.4616 230.075 43.871 229.532 45.0935C228.989 46.3161 228.191 47.3519 227.138 48.2008C226.119 49.0159 224.896 49.6441 223.47 50.0856C222.044 50.5271 220.465 50.7478 218.733 50.7478ZM211.754 34.1924H224.896C224.896 32.868 224.744 31.7643 224.438 30.8813C224.166 29.9644 223.759 29.2173 223.215 28.64C222.672 28.0627 222.027 27.6552 221.28 27.4174C220.533 27.1458 219.684 27.0099 218.733 27.0099C217.306 27.0099 216.084 27.2646 215.065 27.774C214.08 28.2834 213.316 29.0815 212.773 30.1682C212.229 31.2209 211.89 32.5624 211.754 34.1924ZM244.188 50.7478C242.32 50.7478 240.673 50.5441 239.247 50.1366C237.82 49.729 236.632 49.1687 235.681 48.4555C234.73 47.7424 234 46.8934 233.491 45.9086C233.015 44.8898 232.777 43.7691 232.777 42.5465C232.777 42.3767 232.777 42.2239 232.777 42.0881C232.811 41.9522 232.828 41.8334 232.828 41.7315H238.075C238.075 41.8334 238.075 41.9353 238.075 42.0371C238.075 42.1051 238.075 42.19 238.075 42.2918C238.075 43.3446 238.364 44.1936 238.941 44.8388C239.518 45.4501 240.283 45.8916 241.233 46.1633C242.218 46.401 243.288 46.5198 244.443 46.5198C245.461 46.5198 246.395 46.401 247.244 46.1633C248.127 45.8916 248.84 45.501 249.384 44.9916C249.961 44.4822 250.25 43.837 250.25 43.0559C250.25 42.0371 249.893 41.2561 249.18 40.7127C248.467 40.1694 247.533 39.7449 246.378 39.4392C245.224 39.0996 244.018 38.743 242.762 38.3695C241.641 38.0638 240.52 37.7412 239.4 37.4016C238.313 37.0281 237.328 36.5526 236.445 35.9753C235.562 35.398 234.849 34.6679 234.306 33.7849C233.762 32.902 233.491 31.7983 233.491 30.4738C233.491 29.2173 233.762 28.1136 234.306 27.1627C234.849 26.2119 235.596 25.4138 236.547 24.7686C237.532 24.1233 238.686 23.6309 240.011 23.2913C241.369 22.9517 242.846 22.7819 244.443 22.7819C246.107 22.7819 247.584 22.9687 248.874 23.3423C250.165 23.6819 251.252 24.1743 252.134 24.8195C253.051 25.4648 253.748 26.2458 254.223 27.1627C254.698 28.0457 254.936 28.9966 254.936 30.0154C254.936 30.2191 254.919 30.4399 254.885 30.6776C254.885 30.8813 254.885 31.0172 254.885 31.0851H249.689V30.6266C249.689 29.9474 249.503 29.3362 249.129 28.7928C248.755 28.2495 248.161 27.808 247.346 27.4684C246.565 27.1288 245.512 26.959 244.188 26.959C243.305 26.959 242.524 27.0439 241.845 27.2137C241.165 27.3495 240.605 27.5533 240.164 27.825C239.722 28.0966 239.383 28.4193 239.145 28.7928C238.941 29.1664 238.839 29.5909 238.839 30.0663C238.839 30.8474 239.111 31.4587 239.654 31.9001C240.232 32.3077 240.979 32.6642 241.896 32.9699C242.813 33.2416 243.797 33.5472 244.85 33.8868C246.073 34.2264 247.312 34.583 248.569 34.9565C249.825 35.2961 250.98 35.7376 252.033 36.281C253.119 36.8243 253.985 37.5714 254.631 38.5223C255.31 39.4732 255.649 40.7467 255.649 42.3428C255.649 43.8031 255.361 45.0765 254.783 46.1633C254.206 47.25 253.391 48.1329 252.338 48.8121C251.319 49.4574 250.114 49.9328 248.722 50.2384C247.329 50.578 245.818 50.7478 244.188 50.7478ZM269.373 50.7478C267.505 50.7478 265.858 50.5441 264.432 50.1366C263.006 49.729 261.817 49.1687 260.866 48.4555C259.915 47.7424 259.185 46.8934 258.676 45.9086C258.2 44.8898 257.963 43.7691 257.963 42.5465C257.963 42.3767 257.963 42.2239 257.963 42.0881C257.997 41.9522 258.014 41.8334 258.014 41.7315H263.26C263.26 41.8334 263.26 41.9353 263.26 42.0371C263.26 42.1051 263.26 42.19 263.26 42.2918C263.26 43.3446 263.549 44.1936 264.126 44.8388C264.704 45.4501 265.468 45.8916 266.419 46.1633C267.404 46.401 268.473 46.5198 269.628 46.5198C270.647 46.5198 271.581 46.401 272.43 46.1633C273.313 45.8916 274.026 45.501 274.569 44.9916C275.146 44.4822 275.435 43.837 275.435 43.0559C275.435 42.0371 275.078 41.2561 274.365 40.7127C273.652 40.1694 272.718 39.7449 271.564 39.4392C270.409 39.0996 269.203 38.743 267.947 38.3695C266.826 38.0638 265.706 37.7412 264.585 37.4016C263.498 37.0281 262.513 36.5526 261.63 35.9753C260.747 35.398 260.034 34.6679 259.491 33.7849C258.948 32.902 258.676 31.7983 258.676 30.4738C258.676 29.2173 258.948 28.1136 259.491 27.1627C260.034 26.2119 260.781 25.4138 261.732 24.7686C262.717 24.1233 263.872 23.6309 265.196 23.2913C266.555 22.9517 268.032 22.7819 269.628 22.7819C271.292 22.7819 272.769 22.9687 274.06 23.3423C275.35 23.6819 276.437 24.1743 277.32 24.8195C278.237 25.4648 278.933 26.2458 279.408 27.1627C279.884 28.0457 280.121 28.9966 280.121 30.0154C280.121 30.2191 280.104 30.4399 280.071 30.6776C280.071 30.8813 280.071 31.0172 280.071 31.0851H274.875V30.6266C274.875 29.9474 274.688 29.3362 274.314 28.7928C273.941 28.2495 273.346 27.808 272.531 27.4684C271.75 27.1288 270.698 26.959 269.373 26.959C268.49 26.959 267.709 27.0439 267.03 27.2137C266.351 27.3495 265.79 27.5533 265.349 27.825C264.907 28.0966 264.568 28.4193 264.33 28.7928C264.126 29.1664 264.025 29.5909 264.025 30.0663C264.025 30.8474 264.296 31.4587 264.84 31.9001C265.417 32.3077 266.164 32.6642 267.081 32.9699C267.998 33.2416 268.983 33.5472 270.035 33.8868C271.258 34.2264 272.497 34.583 273.754 34.9565C275.011 35.2961 276.165 35.7376 277.218 36.281C278.305 36.8243 279.171 37.5714 279.816 38.5223C280.495 39.4732 280.835 40.7467 280.835 42.3428C280.835 43.8031 280.546 45.0765 279.969 46.1633C279.391 47.25 278.576 48.1329 277.524 48.8121C276.505 49.4574 275.299 49.9328 273.907 50.2384C272.514 50.578 271.003 50.7478 269.373 50.7478Z" fill="black"/>
<path d="M181.933 71.6273V62.5271H186.762C187.266 62.5271 187.708 62.6199 188.089 62.8057C188.469 62.9825 188.765 63.239 188.977 63.5751C189.198 63.9111 189.309 64.3047 189.309 64.7557C189.309 65.1006 189.243 65.4146 189.11 65.6976C188.986 65.9805 188.809 66.2193 188.579 66.4139C188.358 66.6085 188.106 66.7544 187.823 66.8517V66.9047C188.15 66.9755 188.442 67.1081 188.699 67.3027C188.964 67.4884 189.172 67.736 189.322 68.0456C189.481 68.3462 189.561 68.7088 189.561 69.1333C189.561 69.7082 189.433 70.1813 189.176 70.5527C188.929 70.9242 188.597 71.1983 188.181 71.3752C187.766 71.5432 187.293 71.6273 186.762 71.6273H181.933ZM183.419 70.3538H186.643C187.049 70.3538 187.381 70.2476 187.638 70.0354C187.903 69.8143 188.035 69.4605 188.035 68.9741C188.035 68.6823 187.978 68.4347 187.863 68.2313C187.757 68.019 187.593 67.8598 187.372 67.7537C187.151 67.6387 186.873 67.5813 186.536 67.5813H183.419V70.3538ZM183.419 66.3343H186.417C186.7 66.3343 186.943 66.2812 187.147 66.1751C187.35 66.069 187.505 65.9186 187.611 65.7241C187.726 65.5295 187.783 65.3128 187.783 65.0741C187.783 64.6407 187.664 64.3224 187.425 64.1189C187.195 63.9067 186.89 63.8006 186.51 63.8006H183.419V66.3343ZM191.818 74.0416C191.553 74.0416 191.332 74.0195 191.155 73.9753C190.978 73.9399 190.867 73.9178 190.823 73.9089V72.914H191.486C191.681 72.914 191.876 72.8698 192.07 72.7814C192.274 72.6929 192.455 72.5514 192.614 72.3569C192.773 72.1623 192.906 71.9191 193.012 71.6273L190.293 64.6496H191.739L193.092 68.1251C193.154 68.2843 193.22 68.4833 193.291 68.7221C193.37 68.9609 193.445 69.2041 193.516 69.4517C193.596 69.6993 193.662 69.9204 193.715 70.115H193.781C193.826 69.9823 193.87 69.832 193.914 69.6639C193.967 69.4871 194.02 69.3058 194.073 69.1201C194.126 68.9343 194.179 68.7575 194.232 68.5894C194.286 68.4126 194.33 68.2622 194.365 68.1384L195.493 64.6496H196.899L194.538 71.3619C194.405 71.7334 194.259 72.0827 194.1 72.4099C193.941 72.7371 193.755 73.0201 193.543 73.2589C193.339 73.5065 193.096 73.6967 192.813 73.8293C192.53 73.9708 192.198 74.0416 191.818 74.0416Z" fill="#414141" fill-opacity="0.66"/>
<path d="M204.492 69.6302C205.023 70.2603 205.564 70.8793 206.283 71.2994C208.593 72.6591 212.02 72.3164 214.507 71.6089C215.016 71.4652 216.166 70.9236 216.608 71.023C217.072 71.1225 216.973 71.4873 217.039 71.8079C217.105 72.1285 217.415 72.9908 217.116 73.3224C216.884 73.5877 215.248 74.1294 214.839 74.251C211.191 75.3122 206.084 75.3343 204.779 70.9678C204.669 70.5919 204.658 70.1829 204.492 69.8513V69.6302ZM286.263 70.3487C285.677 69.8402 284.019 69.8734 283.621 70.6251C283.223 71.3768 283.4 72.018 283.621 72.3828C284.063 73.1234 285.6 73.1566 286.241 72.6923C286.882 72.228 286.517 72.1396 286.738 71.8411V71.2884C286.562 70.9346 286.595 70.6361 286.263 70.3487ZM266.343 60.9854L266.254 60.897H263.767C263.689 60.9412 263.689 61.0076 263.678 61.0849C263.601 61.7814 263.634 63.1743 263.678 63.9039C263.734 64.7772 263.966 65.6616 264.121 66.5238C263.988 66.5901 263.8 66.6233 263.678 66.5017C263.557 66.3801 263.28 65.5068 263.137 65.2746C261.91 63.2406 258.549 63.4727 257.278 65.352C256.239 66.8886 256.194 69.6744 257.167 71.2441C258.56 73.4993 262.429 73.7646 263.502 71.0783C263.656 70.7025 263.601 70.1166 264.121 70.2382V72.6923L264.209 72.7807H266.332V60.9854H266.343ZM262.717 66.2143C264.176 67.3197 264.043 70.3819 262.186 70.9788C259.378 71.8743 258.372 68.0272 259.953 66.3469C261.534 64.6666 261.899 65.6063 262.706 66.2253L262.717 66.2143ZM281.598 71.4321C281.388 67.9388 282.582 63.9149 277.585 63.937C275.982 63.937 274.269 64.4677 273.473 65.96C273.373 66.1369 273.34 66.3469 273.208 66.5128L273.351 66.6344L275.374 67.1981C275.551 66.966 275.595 66.7007 275.794 66.4575C276.358 65.7721 277.718 65.4736 278.503 65.9048C279.21 66.2917 279.343 67.3861 278.447 67.6293C276.679 68.0936 273.13 67.8614 272.975 70.3929C272.854 72.2059 274.191 73.0903 275.883 73.0239C277.298 72.9576 278.447 72.0622 278.956 70.7688C279.199 70.7467 279.299 70.6914 279.332 70.9567C279.409 71.5426 279.42 72.1285 279.509 72.7144L279.586 72.8028H281.709C281.764 72.3496 281.631 71.8964 281.598 71.4431V71.4321ZM279.133 69.6854C278.879 70.5477 277.475 71.3989 276.59 71.3436C275.706 71.2884 274.899 69.9286 275.905 69.3317C276.767 68.8232 278.16 68.9448 279.1 68.58C279.033 68.9116 279.21 69.398 279.122 69.6854H279.133ZM234.583 67.1871C233.875 71.012 236.197 73.4661 240.055 72.9355C245.206 72.2391 244.974 64.4787 239.955 63.9923L238.806 63.9481C236.816 64.0034 234.959 65.1199 234.583 67.1871ZM239.458 71.2884C237.18 71.4984 236.561 69.0222 237.07 67.2424C237.578 65.4626 239.259 65.2636 240.464 66.2253C241.79 67.2976 241.691 71.0783 239.469 71.2884H239.458ZM254.791 67.9941C254.724 66.4907 254.415 64.8546 252.878 64.2134C252.126 63.9039 251.032 63.8928 250.247 64.0807C249.009 64.3792 248.268 65.4626 247.97 66.6454H247.583C247.428 65.9048 247.682 65.1088 247.583 64.3571C247.483 63.6054 247.583 64.2134 247.494 64.1692H245.505L245.416 64.2576V72.438L245.505 72.5265H247.992L248.08 72.438V68.0715C248.08 67.7619 248.5 66.8665 248.71 66.6012C249.915 65.1199 252.115 65.8605 252.115 67.7951V72.5265H254.768C254.713 71.0341 254.835 69.5086 254.768 68.0162L254.791 67.9941ZM225.772 64.7993C224.202 65.9048 223.694 68.0383 224.136 69.8513C224.766 72.4933 227.53 73.2561 229.94 72.9465C231.587 72.7365 233.146 71.7305 233.289 69.9618L231.078 69.5196C230.857 71.6642 227.729 71.8853 226.889 70.0834C226.259 68.7237 226.513 65.949 228.392 65.761C230.271 65.5731 230.415 66.1811 230.636 67.364L232.958 66.6675C233.024 66.6123 232.891 66.3027 232.858 66.2143C232.703 65.8053 232.361 65.3078 232.04 65.0093C230.515 63.6054 227.408 63.6275 225.761 64.7993H225.772ZM213.258 61.3503C211.213 61.6156 208.792 62.6105 207.2 63.9149C205.465 65.341 203.298 68.4915 205.653 70.3487C205.465 69.2654 205.686 68.2152 206.46 67.4192C206.637 67.3419 206.438 67.8393 206.438 67.8946C206.382 68.591 206.526 69.398 207.09 69.8513C206.902 67.8614 209.268 66.8333 210.837 66.3248C212.407 65.8163 212.418 65.9711 212.595 65.8163C212.949 65.4957 212.54 64.6887 212.573 64.2687C213.148 63.9923 214.74 64.1471 214.784 63.2959C214.828 62.4447 214.386 61.6377 214.209 61.4608C213.966 61.2176 213.579 61.295 213.269 61.3392L213.258 61.3503ZM268.332 63.9923V72.5044H270.897L270.986 72.4159V63.9923H268.332ZM218.388 67.983C218.211 67.9609 217.503 68.8342 217.293 69.0222C216.862 69.387 216.254 69.7518 215.735 70.006C214.828 70.4593 213.888 70.7577 212.893 70.9567L213.004 71.5094C213.07 71.5758 214.098 71.3105 214.275 71.2662C215.005 71.0783 216.276 70.4703 216.951 70.802C217.625 71.1336 217.238 71.4984 217.514 71.8964C217.979 71.5426 218.465 71.1889 218.841 70.7356C219.217 70.2824 219.195 70.3155 219.128 69.8955C219.062 69.4754 218.83 68.7458 218.719 68.4252C218.609 68.1046 218.631 68.171 218.576 68.0936C218.52 68.0162 218.421 67.983 218.388 67.983ZM268.056 61.704C268.144 62.7431 269.736 62.7874 270.499 62.5441C271.262 62.3009 271.45 61.8035 271.24 61.1734C271.008 60.4769 270.068 60.3774 269.427 60.4217C268.786 60.4659 267.968 60.7533 268.056 61.704ZM206.095 70.1608C206.349 70.7688 206.239 71.1115 206.902 71.3989C208.328 72.0511 210.229 71.8853 211.766 71.8411C212.02 71.8079 211.832 71.4431 211.744 71.3326C211.478 71.023 210.649 71.2441 210.285 71.2331C209.511 71.2331 208.516 71.0562 207.797 70.7356C207.079 70.415 206.57 69.9065 206.117 69.2985V70.1608H206.095Z" fill="#23C65D"/>
</svg>
